Coordinates
version=1
nRows=10
nColumns=28
inDegrees=yes

Units are S.I. units (second, meters, Newtons, ...)
Angles are in degrees.

endheader
time	pelvis_tilt	pelvis_list	pelvis_rotation	pelvis_tx	pelvis_ty	pelvis_tz	hip_flexion_r	hip_adduction_r	hip_rotation_r	knee_angle_r	ankle_angle_r	subtalar_angle_r	mtp_angle_r	hip_flexion_l	hip_adduction_l	hip_rotation_l	knee_angle_l	socket_flexion	socket_adduction	socket_rotation	socket_tx	socket_ty	socket_tz	foot_flex	lumbar_extension	lumbar_bending	lumbar_rotation
      0.32500000	      5.35025410	     -0.17630207	     -5.67330269	     -0.42884163	      1.01824258	      0.27903188	     13.35857657	      0.44698235	      3.33115622	    -64.31145894	      4.66569248	    -10.93056840	     30.18992951	     -5.83871810	      1.27187547	      6.07031606	      5.02224029	      4.44813228	      0.00000000	      0.00000000	      0.00000000	      0.00000000	      0.00000000	      2.25433158	    -14.84000487	     -3.56153304	      4.33678932
      0.32916667	      5.39931839	     -0.17826698	     -5.61160967	     -0.42421504	      1.01855862	      0.27879528	     13.91727296	      0.49007829	      3.33333903	    -63.95297071	      4.71875087	    -10.93508929	     30.19260009	     -6.18489392	      1.31047040	      6.10224831	      4.99116816	      4.34724450	      0.00000000	      0.00000000	      0.00000000	      0.00000000	      0.00000000	      2.29547138	    -14.95088612	     -3.56611943	      4.33107776
      0.33333333	      5.36736267	     -0.42963075	     -5.46613484	     -0.41923950	      1.01900521	      0.27849852	     14.35132547	      0.87187018	      3.35528623	    -63.30676066	      5.29230661	    -10.87686611	     30.27440856	     -6.52977208	      1.04954236	      6.23164304	      5.07611207	      4.34269043	      0.00000000	      0.00000000	      0.00000000	      0.00000000	      0.00000000	      2.47834457	    -14.94477585	     -3.23481134	      4.24232592
      0.33750000	      5.40852340	     -0.43139569	     -5.43044272	     -0.41467250	      1.01926165	      0.27833096	     14.90435044	      0.90775521	      3.33783675	    -62.88895990	      5.35239520	    -10.87367736	     30.27559850	     -6.86879410	      1.08565047	      6.26948830	      5.05881043	      4.25918612	      0.00000000	      0.00000000	      0.00000000	      0.00000000	      0.00000000	      2.51698327	    -15.05834234	     -3.23531221	      4.22627960
      0.34166667	      5.43645696	     -0.43684106	     -5.37905984	     -0.41005969	      1.01950259	      0.27816321	     15.43563989	      0.95790236	      3.33197010	    -62.40545023	      5.44377608	    -10.86922500	     30.28003676	     -7.19923530	      1.11189737	      6.31058000	      5.05041542	      4.17969883	      0.00000000	      0.00000000	      0.00000000	      0.00000000	      0.00000000	      2.57421639	    -15.15799611	     -3.22536140	      4.20494256
      0.34583333	      5.34736010	     -0.90385951	     -5.10020289	     -0.40470421	      1.01997304	      0.27765453	     15.73893006	      1.53669372	      3.20720028	    -61.47148194	      6.22060399	    -10.68442837	     30.34436698	     -7.61367128	      0.57904596	      6.57624642	      5.42746867	      4.36020516	      0.00000000	      0.00000000	      0.00000000	      0.00000000	      0.00000000	      2.78623915	    -15.02989317	     -2.58720190	      3.91568048
      0.35000000	      5.38103916	     -0.88587979	     -5.07074944	     -0.40017307	      1.02011258	      0.27754825	     16.27924997	      1.55133221	      3.18566586	    -60.99808501	      6.26332873	    -10.68168157	     30.33659961	     -7.94927302	      0.62855081	      6.61076273	      5.43022790	      4.28053407	      0.00000000	      0.00000000	      0.00000000	      0.00000000	      0.00000000	      2.82907750	    -15.15032327	     -2.60434864	      3.89505088
      0.35416667	      5.39331965	     -1.25809657	     -4.80024096	     -0.39483546	      1.02056392	      0.27705166	     16.49331781	      1.95835405	      2.97923122	    -60.04740007	      6.66532460	    -10.51113367	     30.19063831	     -8.55155270	      0.19233801	      6.89537863	      6.07534957	      4.61846031	      0.00000000	      0.00000000	      0.00000000	      0.00000000	      0.00000000	      2.96501029	    -15.12959107	     -2.08510853	      3.50957103
      0.35833333	      5.55214338	     -1.43259999	     -4.69765409	     -0.39001192	      1.02094142	      0.27684976	     16.71622003	      2.17315386	      2.91908799	    -59.30186689	      6.84793908	    -10.52503294	     29.67285062	     -9.23182371	      0.00843707	      7.00512220	      6.59364987	      4.87475194	      0.00000000	      0.00000000	      0.00000000	      0.00000000	      0.00000000	      3.05096548	    -15.36582875	     -1.87124895	      3.33691360
      0.36250000	      5.55354115	     -1.42863142	     -4.62048080	     -0.38534297	      1.02109783	      0.27671511	     17.16035282	      2.21171992	      2.91527682	    -58.59745847	      6.97095194	    -10.54666819	     29.63066929	     -9.48592388	      0.04118828	      7.03474267	      6.43892503	      4.71247689	      0.00000000	      0.00000000	      0.00000000	      0.00000000	      0.00000000	      3.15179046	    -15.40582638	     -1.88532568	      3.32771592
